<svg viewBox="0 0 100 100" fill="none" xmlns="http://www.w3.org/2000/svg">
  <circle cx="50" cy="50" r="46" fill="#9B7BB8"></circle>
  <circle cx="50" cy="50" r="46" stroke="#2D2A3E" stroke-width="4"></circle>
  <path d="M22 32a10 10 0 0 1 10-10h36a10 10 0 0 1 10 10v25a10 10 0 0 1-10 10h-17.5L35.5 82V67H32a10 10 0 0 1-10-10z" fill="#F5E6D3"></path>
  <path d="M22 32a10 10 0 0 1 10-10h36a10 10 0 0 1 10 10v25a10 10 0 0 1-10 10h-17.5L35.5 82V67H32a10 10 0 0 1-10-10z" stroke="#2D2A3E" stroke-width="3.5" stroke-linejoin="round"></path>
  <path d="M34 44.5h30" stroke="#9B7BB8" stroke-width="5.5" stroke-linecap="round"></path>
  <path d="M34 44.5l12-12" stroke="#9B7BB8" stroke-width="5.5" stroke-linecap="round" stroke-linejoin="round"></path>
  <path d="M34 44.5l12 12" stroke="#9B7BB8" stroke-width="5.5" stroke-linecap="round" stroke-linejoin="round"></path>
</svg>













