<svg xmlns="http://www.w3.org/2000/svg" width="32" height="32" viewBox="0 0 32 32">
  <!-- Square container with border -->
  <rect x="1" y="1" width="30" height="30" fill="#6366f1" stroke="#0f172a" stroke-width="2"/>
  
  <!-- Lightning bolt icon (centered in the box) -->
  <g transform="translate(6, 6)">
    <path d="M4 14a1 1 0 0 1-.78-1.63l9.9-10.2a.5.5 0 0 1 .86.46l-1.92 6.02A1 1 0 0 0 13 10h7a1 1 0 0 1 .78 1.63l-9.9 10.2a.5.5 0 0 1-.86-.46l1.92-6.02A1 1 0 0 0 11 14z" 
          fill="none" 
          stroke="white" 
          stroke-width="2" 
          stroke-linecap="round" 
          stroke-linejoin="round"
          transform="scale(0.833)"/>
  </g>
</svg>

