<svg xmlns="http://www.w3.org/2000/svg" viewBox="0 0 127 127">
  <path d="M27.2 80c0 7.3-5.9 13.2-13.2 13.2S.8 87.3.8 80s5.9-13.2 13.2-13.2h13.2V80z" fill="#e01e5a"/>
  <path d="M33.9 80c0-7.3 5.9-13.2 13.2-13.2s13.2 5.9 13.2 13.2v33c0 7.3-5.9 13.2-13.2 13.2s-13.2-5.9-13.2-13.2V80z" fill="#e01e5a"/>
  <path d="M47.1 27.2c-7.3 0-13.2-5.9-13.2-13.2S39.8.8 47.1.8s13.2 5.9 13.2 13.2v13.2H47.1z" fill="#36c5f0"/>
  <path d="M47.1 33.9c7.3 0 13.2 5.9 13.2 13.2s-5.9 13.2-13.2 13.2H14c-7.3 0-13.2-5.9-13.2-13.2s5.9-13.2 13.2-13.2h33.1z" fill="#36c5f0"/>
  <path d="M99.9 47.1c0-7.3 5.9-13.2 13.2-13.2s13.2 5.9 13.2 13.2-5.9 13.2-13.2 13.2H99.9V47.1z" fill="#2eb67d"/>
  <path d="M93.2 47.1c0 7.3-5.9 13.2-13.2 13.2s-13.2-5.9-13.2-13.2V14c0-7.3 5.9-13.2 13.2-13.2s13.2 5.9 13.2 13.2v33.1z" fill="#2eb67d"/>
  <path d="M80 99.9c7.3 0 13.2 5.9 13.2 13.2s-5.9 13.2-13.2 13.2-13.2-5.9-13.2-13.2V99.9H80z" fill="#ecb22e"/>
  <path d="M80 93.2c-7.3 0-13.2-5.9-13.2-13.2s5.9-13.2 13.2-13.2h33.1c7.3 0 13.2 5.9 13.2 13.2s-5.9 13.2-13.2 13.2H80z" fill="#ecb22e"/>
</svg>

